<svg width="100" height="100" viewBox="0 0 100 100" fill="none" xmlns="http://www.w3.org/2000/svg">
<g id="002-assortment" clip-path="url(#clip0_827_4634)">
<g id="Group">
<g id="Group_2">
<path id="Vector" d="M73.4008 94.3362C72.3881 94.3362 71.5555 95.1067 71.4573 96.0936H56.7594L54.4407 82.1309L57.018 79.5538C57.3842 79.1876 57.5901 78.6907 57.5901 78.1727C57.5901 77.6548 57.3842 77.1581 57.018 76.7917L54.7376 74.5112H58.6342C62.9108 74.5112 66.8903 76.6339 69.2788 80.1893C69.8803 81.0846 71.094 81.3227 71.9891 80.7214C72.8844 80.1198 73.1227 78.9063 72.5211 78.0108C69.4301 73.41 64.2956 70.6503 58.7657 70.6069C60.6577 68.5116 61.8118 65.7378 61.8118 62.6991V59.8344C61.8118 53.3212 56.5129 48.0223 49.9997 48.0223C43.4864 48.0223 38.1876 53.3212 38.1876 59.8344V62.6991C38.1876 65.7386 39.342 68.5128 41.2346 70.6083C32.0756 70.679 24.6458 78.1491 24.6458 87.3245V98.0468C24.6458 99.1253 25.5202 99.9999 26.5989 99.9999H73.4004C74.4791 99.9999 75.3536 99.1253 75.3536 98.0468V96.2893C75.354 95.2108 74.4795 94.3362 73.4008 94.3362ZM50.0225 81.0251L47.17 78.1727L50.0225 75.3204L52.875 78.1727L50.0225 81.0251ZM49.0116 85.4561C49.3215 85.644 49.6715 85.7403 50.0223 85.7403C50.3731 85.7403 50.7233 85.6442 51.0331 85.4561L52.7997 96.0936H47.245L49.0116 85.4561ZM42.0942 59.8344C42.0942 55.4753 45.6407 51.9286 50 51.9286C54.3594 51.9286 57.9059 55.4751 57.9059 59.8344V62.6991C57.9059 67.0583 54.3594 70.605 50 70.605C45.6407 70.605 42.0942 67.0585 42.0942 62.6991V59.8344ZM28.5524 87.3245C28.5524 80.2591 34.3004 74.5112 41.3657 74.5112H45.3071L43.0266 76.7917C42.6604 77.1581 42.4545 77.6548 42.4545 78.1727C42.4545 78.6907 42.6604 79.1876 43.0266 79.5538L45.604 82.1309L43.2852 96.0936H28.5522V87.3245H28.5524Z" fill="#0C0B0B"/>
<g id="Vector 16">
<path d="M39.6479 2.16797C40.2261 2.16797 53.3784 2.64974 59.8823 2.89062V23.8477L39.6479 23.125V2.16797Z" fill="#FDC040"/>
<path d="M85.8979 2.89062L75.7808 21.6797H97.4604L87.3433 3.61328L85.8979 2.89062Z" fill="#FDC040"/>
<path d="M39.6479 2.16797C40.2261 2.16797 53.3784 2.64974 59.8823 2.89062V23.8477L39.6479 23.125V2.16797Z" stroke="black" stroke-linecap="round" stroke-linejoin="round"/>
<path d="M85.8979 2.89062L75.7808 21.6797H97.4604L87.3433 3.61328L85.8979 2.89062Z" stroke="black" stroke-linecap="round" stroke-linejoin="round"/>
</g>
<path id="Vector_2" d="M24.9775 12.4897C24.9775 5.60338 19.375 0.0010376 12.4889 0.0010376C5.60273 0.0010376 0 5.60358 0 12.4897C0 19.3758 5.60254 24.9784 12.4887 24.9784C19.3748 24.9784 24.9775 19.376 24.9775 12.4897ZM3.90625 12.4897C3.90625 7.75748 7.75625 3.90729 12.4887 3.90729C17.2211 3.90729 21.0711 7.75748 21.0711 12.4897C21.0711 17.2219 17.2211 21.0721 12.4887 21.0721C7.75625 21.0721 3.90625 17.2221 3.90625 12.4897Z" fill="#0C0B0B"/>
<path id="Vector_3" d="M39.4641 24.9777H60.5354C61.6141 24.9777 62.4885 24.1031 62.4885 23.0246V1.95331C62.4885 0.874793 61.6141 0.000183105 60.5354 0.000183105H39.4641C38.3854 0.000183105 37.511 0.874793 37.511 1.95331V23.0246C37.511 24.1031 38.3854 24.9777 39.4641 24.9777ZM41.4172 3.90643H58.5823V21.0715H41.4172V3.90643Z" fill="#0C0B0B"/>
<path id="Vector_4" d="M99.7378 21.272L88.468 1.7525C88.1192 1.14821 87.4745 0.77594 86.7766 0.77594C86.0788 0.77594 85.434 1.14821 85.0852 1.7525L73.8155 21.272C73.4665 21.8763 73.4665 22.6209 73.8155 23.2252C74.1643 23.8295 74.809 24.2017 75.5069 24.2017H98.0463C98.7442 24.2017 99.3889 23.8295 99.7378 23.2252C100.087 22.6209 100.087 21.8763 99.7378 21.272ZM78.8897 20.2955L86.7764 6.63531L94.6631 20.2955H78.8897Z" fill="#0C0B0B"/>
<path id="Vector_5" d="M50.0001 44.188C51.0788 44.188 51.9532 43.3134 51.9532 42.2349V36.6621L52.0323 36.7724C52.4138 37.3054 53.0134 37.5892 53.6224 37.5892C54.0157 37.5892 54.413 37.4707 54.7575 37.2242C55.6347 36.5964 55.8368 35.3765 55.2091 34.4994L51.5886 29.4402C51.2218 28.9277 50.6304 28.6236 50.0003 28.6236C49.3702 28.6236 48.7788 28.9277 48.412 29.4402L44.7915 34.4994C44.1638 35.3765 44.3659 36.5964 45.2431 37.2242C46.1202 37.8519 47.3401 37.65 47.9681 36.7726L48.047 36.6621V42.2349C48.047 43.3136 48.9214 44.188 50.0001 44.188Z" fill="#0C0B0B"/>
<path id="Vector_6" d="M33.9194 60.0064C33.9194 58.9279 33.045 58.0533 31.9663 58.0533H14.4532V36.6621L14.5323 36.7724C14.9138 37.3054 15.5134 37.5892 16.1223 37.5892C16.5157 37.5892 16.913 37.4707 17.2575 37.2242C18.1347 36.5964 18.3368 35.3765 17.7091 34.4994L14.0886 29.4402C13.7218 28.9277 13.1304 28.6236 12.5003 28.6236C11.8702 28.6236 11.2788 28.9277 10.912 29.4402L7.29149 34.4994C6.66376 35.3765 6.8659 36.5964 7.74305 37.2242C8.62001 37.8519 9.84012 37.65 10.4681 36.7726L10.547 36.6621V60.0064C10.547 61.0849 11.4214 61.9595 12.5001 61.9595H31.9663C33.0448 61.9595 33.9194 61.0851 33.9194 60.0064Z" fill="#0C0B0B"/>
<path id="Vector_7" d="M89.0882 29.44C88.7214 28.9275 88.13 28.6234 87.4999 28.6234C86.8698 28.6234 86.2784 28.9275 85.9116 29.44L82.2911 34.4992C81.6634 35.3763 81.8655 36.5963 82.7427 37.224C83.6198 37.8517 84.8399 37.6498 85.4677 36.7724L85.5468 36.6621V58.0533H68.0337C66.955 58.0533 66.0806 58.9279 66.0806 60.0064C66.0806 61.0849 66.955 61.9595 68.0337 61.9595H87.4999C88.5786 61.9595 89.453 61.0849 89.453 60.0064V36.6621L89.5321 36.7724C89.9136 37.3054 90.5132 37.5892 91.1222 37.5892C91.5155 37.5892 91.9128 37.4707 92.2573 37.2242C93.1345 36.5965 93.3366 35.3765 92.7089 34.4994L89.0882 29.44Z" fill="#0C0B0B"/>
<path id="Vector_8" d="M73.4001 89.4538C74.4788 89.4538 75.3533 88.5794 75.3533 87.5007C75.3533 86.422 74.4788 85.5475 73.4001 85.5475C72.3215 85.5475 71.447 86.422 71.447 87.5007C71.447 88.5794 72.3215 89.4538 73.4001 89.4538Z" fill="#0C0B0B"/>
</g>
</g>
</g>
<defs>
<clipPath id="clip0_827_4634">
<rect width="100" height="100" fill="white"/>
</clipPath>
</defs>
</svg>
