<svg width="100" height="100" viewBox="0 0 100 100" fill="none" xmlns="http://www.w3.org/2000/svg">
<g id="003-exchange" clip-path="url(#clip0_827_4666)">
<path id="Vector 17" d="M19.9016 23.8943V50.685C24.9701 48.9955 37.4241 48.6576 46.6922 60.8219C48.8644 65.4077 52.34 76.0274 48.8644 81.82L59.0014 87.6125V44.1683L19.9016 23.8943Z" fill="#FDC040"/>
<path id="Vector" d="M98.9873 21.6277L60.0407 0.241753C59.4555 -0.0794449 58.746 -0.0794449 58.1608 0.241753L43.4811 8.30221C43.1713 8.38385 42.8822 8.53948 42.6426 8.76303L19.215 21.6277C18.5902 21.9703 18.2019 22.6264 18.2019 23.3398V49.2049C14.2498 50.4409 10.6281 52.6206 7.61682 55.6327C-0.232301 63.4811 -2.23349 75.4516 2.63712 85.4194C3.11014 86.3883 4.27972 86.7904 5.24866 86.3166C6.21836 85.8428 6.61966 84.6732 6.14664 83.7043C2.00845 75.2349 3.70905 65.0642 10.3787 58.3945C14.5497 54.2236 20.0947 51.9263 25.993 51.9263C31.8913 51.9263 37.4363 54.2236 41.6073 58.3945C45.7775 62.5648 48.0748 68.1098 48.0748 74.0081C48.0748 79.9064 45.7775 85.4514 41.6066 89.6224C34.9369 96.2921 24.7662 97.9926 16.2968 93.8545C15.3279 93.3807 14.1583 93.7827 13.6852 94.7517C13.2115 95.7214 13.6128 96.891 14.5825 97.364C18.2133 99.1386 22.1089 100.001 25.9762 100.001C32.7229 99.9999 39.3795 97.3739 44.3692 92.3843C46.6572 90.0962 48.4654 87.4564 49.7448 84.587L58.1608 89.2082C58.4538 89.3691 58.7773 89.4492 59.1008 89.4492C59.4242 89.4492 59.7485 89.3691 60.0407 89.2082L98.9873 67.823C99.6121 67.4796 100 66.8235 100 66.1109V52.5375C100 51.4587 99.1261 50.5843 98.0473 50.5843C96.9685 50.5843 96.0942 51.4587 96.0942 52.5375V64.9551L61.06 84.1926V45.8778L72.6223 39.5286V49.5933C72.6223 50.2845 72.987 50.9238 73.5814 51.2748C73.8881 51.4556 74.2314 51.5464 74.5755 51.5464C74.899 51.5464 75.2232 51.4663 75.5169 51.3045L83.8627 46.7109C84.4868 46.3676 84.8736 45.7122 84.8736 45.0004V32.801L96.0942 26.6402V36.9132C96.0942 37.992 96.9685 38.8663 98.0473 38.8663C99.1261 38.8663 100 37.992 100 36.9132V23.3398C100 22.6272 99.6121 21.9703 98.9873 21.6277ZM59.1008 4.18157L93.9892 23.3398L82.9838 29.383L48.0954 10.2248L59.1008 4.18157ZM59.1008 42.4972L24.2123 23.3398L35.6213 17.0745L70.5105 36.2319L59.1008 42.4972ZM74.5678 34.0041L39.6794 14.8467L44.0373 12.4534L78.9265 31.6108L74.5678 34.0041ZM44.3692 55.6327C39.4604 50.7239 32.9342 48.0209 25.993 48.0209C24.68 48.0209 23.383 48.1177 22.1081 48.3077V26.6402L57.1545 45.8846V84.1995L51.0716 80.8593C51.6705 78.6544 51.9802 76.3549 51.9802 74.0081C51.9802 67.0669 49.2772 60.5407 44.3692 55.6327ZM80.9681 43.846L76.5286 46.2897V37.3839L80.9681 34.9464V43.846Z" fill="#0C0B0B"/>
<path id="Vector_2" d="M98.0472 42.762C97.5338 42.762 97.0295 42.9711 96.6663 43.3342C96.3032 43.6974 96.0941 44.2009 96.0941 44.7151C96.0941 45.2286 96.3032 45.7321 96.6663 46.0953C97.0295 46.4592 97.5338 46.6675 98.0472 46.6675C98.5607 46.6675 99.065 46.4592 99.4282 46.0953C99.7913 45.7321 100 45.2286 100 44.7151C100 44.2009 99.7913 43.6974 99.4282 43.3342C99.065 42.9711 98.5607 42.762 98.0472 42.762Z" fill="#0C0B0B"/>
<path id="Vector_3" d="M19.425 75.9606C19.9247 75.9606 20.4252 75.7698 20.8059 75.3891C21.5688 74.6262 21.5688 73.3894 20.8059 72.6265L19.4532 71.2731H30.9965C33.7965 71.2731 36.0746 73.5512 36.0746 76.3512C36.0746 79.1512 33.7965 81.4293 30.9965 81.4293H24.1567C23.0779 81.4293 22.2036 82.3036 22.2036 83.3824C22.2036 84.4605 23.0779 85.3348 24.1567 85.3348H30.9965C35.9502 85.3348 39.9809 81.3049 39.9809 76.3512C39.9809 71.3974 35.9502 67.3676 30.9965 67.3676H19.4532L20.8059 66.0141C21.5688 65.2512 21.5688 64.0144 20.8059 63.2515C20.0437 62.4893 18.807 62.4893 18.044 63.2515L13.3565 67.939C12.5944 68.7019 12.5944 69.9387 13.3565 70.7016L18.044 75.3884C18.4255 75.7698 18.9252 75.9606 19.425 75.9606Z" fill="#0C0B0B"/>
<path id="Vector_4" d="M8.99914 92.9589C8.44372 92.9589 7.89212 92.7224 7.50683 92.2638L7.50302 92.2593C6.80874 91.4338 6.91555 90.2024 7.74106 89.5081C8.56656 88.8131 9.7987 88.9199 10.493 89.7454C11.1865 90.5716 11.082 91.8053 10.2565 92.4996C9.88949 92.8078 9.44317 92.9589 8.99914 92.9589Z" fill="#0C0B0B"/>
</g>
<defs>
<clipPath id="clip0_827_4666">
<rect width="100" height="100" fill="white"/>
</clipPath>
</defs>
</svg>
