<svg width="100" height="100" viewBox="0 0 100 100" fill="none" xmlns="http://www.w3.org/2000/svg">
<g id="006-deal" clip-path="url(#clip0_827_4677)">
<g id="Group">
<g id="Group_2">
<g id="Vector 14">
<path d="M64.0427 47.6953L69.1013 39.7461L76.3279 36.1328C77.2914 35.8919 79.363 35.5546 79.9412 36.1328C80.5193 36.7109 88.8539 47.9362 92.949 53.4766L96.5622 59.9805C95.8396 61.4258 94.2497 64.4609 93.6716 65.0391C93.0935 65.6172 87.6495 68.1706 84.9997 69.375C83.5544 69.6159 80.5193 70.0976 79.9412 70.0976C79.363 70.0976 72.4737 60.944 69.1013 56.3672L65.3074 49.8633L64.0427 47.6953Z" fill="#FDC040"/>
<path d="M79.9412 70.0976C79.363 70.0976 72.4737 60.944 69.1013 56.3672L65.3074 49.8633H62.5974H55.3708C54.6482 49.8633 51.0349 51.3086 49.5896 52.0312L45.2537 54.1992C43.8083 54.9219 42.363 56.3672 41.6404 57.0898C40.9177 57.8125 39.4724 59.9805 39.4724 60.7031C39.4724 61.4258 39.4724 62.8711 40.1951 63.5937C40.9177 64.3164 42.363 65.0391 43.0857 65.0391H47.4216C48.5779 65.0391 51.7576 63.5937 53.2029 62.8711C53.6846 63.112 54.7927 63.7383 55.3708 64.3164C55.949 64.8945 60.9112 68.4114 63.3201 70.0976L69.1013 75.8789C70.0649 76.3607 72.1365 77.1797 72.7146 76.6015C73.2927 76.0234 75.3643 74.4336 76.3279 73.7109L78.4958 72.2656L79.9412 70.0976Z" fill="#FDC040"/>
<path d="M22.1287 78.0469C22.1287 79.2031 24.0557 81.4193 25.0193 82.3828L30.0779 86.7187L32.9685 88.8867L35.8591 91.7773C36.8227 92.2591 38.7498 93.3672 38.7498 93.9453C38.7498 94.5234 41.6404 95.1497 43.0857 95.3906C43.8083 94.9088 45.3982 93.8008 45.9763 93.2226C46.699 92.5 46.699 92.5 46.699 91.0547C46.699 89.6094 46.699 88.164 45.9763 86.7187C45.2537 85.2734 45.2537 82.3828 44.531 81.6601C43.8083 80.9375 40.9177 79.4922 40.9177 78.7695C40.9177 78.0469 38.7498 75.1562 38.0271 74.4336C37.3044 73.7109 35.8591 70.8203 35.1365 70.0976C34.4138 69.375 32.2458 67.9297 30.8005 68.6523C29.3552 69.375 25.0193 72.9883 24.2966 73.7109C23.7185 74.2891 22.6104 76.8424 22.1287 78.0469Z" fill="#FDC040"/>
<path d="M35.8591 7.22656C40.1951 13.2487 52.6248 25.0039 67.656 23.8477L64.7654 32.5195L60.4294 36.1328L46.699 40.4687L35.8591 36.8555L29.3552 25.293L30.0779 15.8984L33.6912 9.39453L35.8591 7.22656Z" fill="#FDC040"/>
</g>
<path id="Vector" d="M48.3832 25.9792C47.6203 25.9792 46.6847 25.8677 46.0441 25.1538C45.8215 24.903 45.6263 24.6688 45.4371 24.4735C43.9111 22.8677 41.2826 25.0981 42.8754 27.1833L43.2596 27.6796C43.5101 27.9921 43.9613 28.3544 44.6072 28.7671C45.2367 29.1682 45.9383 29.4583 46.718 29.6311V32.3858C46.718 33.3337 47.4918 34.1143 48.4388 34.1143C49.3912 34.1143 50.1986 33.3337 50.1986 32.3858V29.6145C51.4461 29.3249 52.5154 28.7169 53.3896 27.7969C54.2693 26.8766 54.7094 25.6557 54.7094 24.1335C54.7094 23.0964 54.5092 22.2323 54.108 21.535C53.707 20.8436 53.217 20.3587 52.6322 20.0852C52.042 19.812 51.4015 19.5721 50.6941 19.3661C49.9926 19.1598 49.3521 19.0147 48.7617 18.9257C48.1771 18.8417 47.6871 18.6632 47.2859 18.4014C46.8849 18.1335 46.6846 17.788 46.6846 17.3585C46.6846 15.3067 49.6918 15.5575 51.017 16.6727C52.9719 18.3177 55.1603 15.3067 52.8937 13.6061L52.632 13.3718C52.4537 13.2327 52.142 13.0596 51.6908 12.8421C51.2453 12.6249 50.7439 12.463 50.1984 12.3458V10.6788V9.95398C50.1984 9.00593 49.4242 8.22546 48.4721 8.22546C47.5252 8.22546 46.7457 9.00574 46.7457 9.95398V12.318C45.4758 12.569 44.4232 13.1993 43.6939 14.1302C42.9588 15.0782 42.5857 16.1266 42.5857 17.2971C42.5857 18.4739 42.8588 19.4385 43.4043 20.2024C43.95 20.9659 44.6129 21.5014 45.398 21.8137C46.1777 22.126 46.9572 22.377 47.7369 22.5608C48.5221 22.7507 49.1849 22.9567 49.7305 23.1966C50.2763 23.4307 50.5492 23.7598 50.5492 24.1891C50.5494 25.3823 49.8256 25.9792 48.3832 25.9792Z" fill="#0C0B0B"/>
<path id="Vector_2" d="M97.9351 56.4156L81.8866 35.8594C80.8056 34.4711 79.1667 33.6748 77.3903 33.6748C76.1366 33.6748 74.9497 34.0729 73.9536 34.8285L63.4507 42.8348C62.2485 43.751 61.4806 45.0807 61.288 46.5787C61.2593 46.802 61.2456 47.0246 61.2433 47.2461C57.2394 46.9428 53.1038 47.2477 49.0876 49.8582L48.9075 49.9752L38.7476 48.4215C38.7685 48.0697 38.7571 47.7137 38.7108 47.3564C38.5171 45.8619 37.7503 44.5354 36.5505 43.6205L26.045 35.6217C23.5837 33.7395 20.0249 34.1967 18.111 36.6436L14.2853 41.5449C13.6157 42.4023 13.7685 43.64 14.6259 44.3092C15.4835 44.9787 16.7212 44.826 17.3905 43.9686L21.2151 39.0689C21.794 38.3287 22.9101 38.183 23.6554 38.7531L34.1632 46.7539C34.519 47.0252 34.7468 47.4189 34.8042 47.8631C34.8618 48.3078 34.7417 48.748 34.4675 49.1002L18.4159 69.6598C17.8409 70.3982 16.7235 70.5426 15.9794 69.9783L5.47608 61.9713C5.11827 61.6986 4.88956 61.3033 4.83233 60.8586C4.77549 60.416 4.89561 59.9787 5.17198 59.6256L7.90088 56.1297C8.57022 55.2723 8.41768 54.0346 7.56006 53.3654C6.70264 52.6957 5.46495 52.8486 4.79542 53.7061L2.06807 57.2C1.13897 58.3877 0.733111 59.8652 0.925298 61.3605C1.11768 62.8584 1.88604 64.1881 3.08799 65.1041L13.5946 73.1139C14.6171 73.8895 15.8255 74.2646 17.0261 74.2645C17.7204 74.2645 18.4112 74.1369 19.0626 73.8908L20.4224 75.7531C19.6833 77.1014 19.5681 78.7209 20.162 80.284C21.011 82.5187 23.0144 84.034 25.1817 84.106C25.2489 84.4244 25.3421 84.7426 25.4692 85.0576C26.3429 87.2223 28.3378 88.6957 30.4813 88.7926C30.4911 88.8488 30.4985 88.9053 30.5101 88.9615C30.9179 90.9436 32.4384 92.6361 34.3835 93.2738C34.879 93.4363 35.3786 93.5197 35.8733 93.5344C36.0628 94.3324 36.4589 95.1031 37.0677 95.7797C38.0167 96.8346 39.4022 97.5096 40.9222 97.5094C42.0259 97.5094 43.2007 97.1512 44.3298 96.3258L46.5601 98.4105C47.6962 99.4707 49.1263 100 50.5427 100C51.9794 99.9998 53.4017 99.4553 54.4878 98.3682C55.1355 97.7199 55.6372 96.9486 55.9618 96.1367C56.5153 96.3049 57.056 96.3846 57.5747 96.3846C59.0355 96.3844 60.3245 95.7676 61.2481 94.8162C62.0038 94.0379 62.5448 93.0018 62.7841 91.8973C62.864 91.9014 62.9439 91.9047 63.0241 91.9055C63.0438 91.9057 63.0632 91.9057 63.0829 91.9057C64.6364 91.9057 66.1271 91.3039 67.1798 90.2496C67.9173 89.5113 68.4247 88.6025 68.6669 87.6104C69.0427 87.6836 69.42 87.7219 69.7966 87.7219C70.2706 87.7219 70.7435 87.6631 71.2093 87.5438C73.1087 87.057 74.5753 85.5727 75.0368 83.6697C75.4628 81.9139 75.0239 80.0641 73.8292 78.3828C76.9226 75.8941 78.1737 74.6682 79.5868 72.376C80.552 73.0859 81.7271 73.4771 82.9688 73.4771C84.2263 73.4771 85.4155 73.0762 86.4042 72.3201L96.9138 64.3182C98.1126 63.4043 98.8796 62.0779 99.0733 60.5832C99.2671 59.0871 98.8636 57.6076 97.9351 56.4156ZM26.2122 79.7629C25.9105 80.0355 25.6179 80.1738 25.3423 80.1738C24.7767 80.1738 24.1189 79.608 23.8442 78.8852C23.595 78.2287 23.7112 77.6803 24.1909 77.2543L24.1972 77.2488L24.2032 77.2436L30.8388 71.3455C31.3939 70.8531 31.9524 70.5928 32.4546 70.5928C33.1894 70.5928 33.7388 71.1508 33.9382 71.6695C34.1515 72.2236 34.0231 72.718 33.5591 73.1377L32.4024 74.1809L32.3993 74.1836C32.3937 74.1885 32.3882 74.1936 32.3825 74.1986C32.3411 74.2361 32.2983 74.2748 32.2562 74.3129L26.2122 79.7629ZM31.5757 84.4705C31.2767 84.7348 30.9917 84.8629 30.705 84.8629C30.1071 84.8629 29.412 84.301 29.1224 83.5832C28.8032 82.7926 29.1819 82.4275 29.3017 82.3119C29.3786 82.2381 29.471 82.1496 29.5673 82.0465L29.569 82.0449L29.5894 82.0269C29.9683 81.6885 33.3048 78.6738 34.8989 77.2334L35.0177 77.1264C35.5579 76.6521 36.1052 76.4016 36.6011 76.4016C37.3831 76.4016 37.9653 77 38.1753 77.5559C38.3841 78.1086 38.2589 78.5924 37.8046 78.9924L37.396 79.3518C37.3929 79.3545 37.3899 79.3566 37.387 79.3594L37.3841 79.3623L31.5757 84.4705ZM37.4464 88.7219C37.4192 88.7463 37.3937 88.7719 37.3673 88.7967L36.9052 89.2137C36.4944 89.5848 36.0831 89.6859 35.6105 89.5309C35.013 89.335 34.4911 88.7617 34.3689 88.168C34.2626 87.6518 34.4692 87.1732 34.9938 86.7107L35.6511 86.1365C35.6677 86.1221 35.6819 86.1062 35.6979 86.0914L40.003 82.3053C41.0347 81.3934 42.0563 81.3019 42.7364 82.0623C42.8321 82.1693 43.6431 83.1334 42.653 84.0277L40.0091 86.4135C39.9808 86.4385 39.9521 86.4609 39.9239 86.4865C39.914 86.4957 39.9058 86.5063 39.896 86.5152L37.4767 88.6982C37.4669 88.7066 37.456 88.7131 37.4464 88.7219ZM39.9964 93.1449C39.7888 92.9145 39.3884 92.317 40.0452 91.6861L42.6827 89.3063C42.8823 89.1355 43.0747 89.0002 43.2548 88.9072C43.263 88.9029 43.2714 88.8986 43.2796 88.8943C44.3427 88.3266 44.9188 88.9885 45.0704 89.2047C45.2651 89.4828 45.5026 90.0291 44.9056 90.5654L43.0985 92.1896C43.0917 92.1957 43.0851 92.202 43.0782 92.208L42.2948 92.9121C41.0075 94.0676 40.2101 93.3828 39.9964 93.1449ZM71.2085 82.7412C71.0874 83.2402 70.7314 83.5998 70.2315 83.7279C69.403 83.94 68.3542 83.4799 67.394 82.4947C67.322 82.415 67.2481 82.3365 67.171 82.2605L59.7362 74.9113C58.9624 74.1469 57.7153 74.1539 56.9507 74.9275C56.186 75.7012 56.1931 76.9482 56.9667 77.7129L64.3896 85.0502C64.4019 85.0633 64.4146 85.0762 64.4267 85.0893C64.7231 85.3943 64.8882 85.8018 64.8899 86.2428C64.8917 86.7086 64.7151 87.143 64.3925 87.466C64.0743 87.7848 63.5983 87.9666 63.0839 87.9666C63.0767 87.9666 63.0696 87.9666 63.0624 87.9664C62.6069 87.9621 62.1913 87.8096 61.8987 87.5434C61.7755 87.384 61.6413 87.2295 61.4939 87.0814L56.0585 81.6394C55.2897 80.8701 54.0427 80.8693 53.273 81.6377C52.5034 82.4064 52.5026 83.6533 53.2712 84.423L58.4257 89.584C58.4878 89.6748 58.5567 89.7625 58.636 89.8443L58.8554 90.0705C59.138 90.6086 58.9628 91.5152 58.4218 92.0727C57.587 92.9322 56.412 92.1744 55.5751 91.3883L53.2474 89.1971C52.4554 88.4514 51.2087 88.4891 50.4632 89.281C49.7175 90.0732 49.7552 91.3197 50.5472 92.0654L52.3253 93.7391C52.3296 93.7432 52.3331 93.7477 52.3374 93.7516C52.378 93.7895 52.4392 93.8469 52.4423 94.0455C52.4499 94.507 52.145 95.14 51.7011 95.5844C51.053 96.233 49.9755 96.2098 49.2491 95.5318L47.2999 93.71L47.5382 93.4957C49.471 91.7602 49.7829 89.0666 48.2968 86.9451C47.8132 86.2547 47.2075 85.7184 46.528 85.3461C47.4858 83.4572 47.2181 81.1639 45.6722 79.4359C44.8001 78.4609 43.5683 77.7951 42.1933 77.6477C42.154 77.1535 42.0458 76.6555 41.8604 76.1645C41.1913 74.393 39.704 73.0891 37.9536 72.6375C38.0265 71.8527 37.9181 71.0426 37.6149 70.2545C36.7858 68.1008 34.7124 66.6535 32.4548 66.6535C30.9743 66.6535 29.5118 67.2568 28.2235 68.3996L23.1948 72.8695L22.0894 71.3557L37.0827 52.1518L43.9378 53.2002L42.9007 53.873C37.346 57.4769 36.9394 61.6682 38.4112 64.3891C39.5892 66.567 41.9401 67.8119 44.4356 67.8119C45.463 67.8117 46.5153 67.6008 47.5198 67.1568C47.5464 67.1449 47.5728 67.1328 47.5985 67.1199L52.7915 64.5451L55.7894 67.2746C55.7923 67.2773 55.7954 67.2793 55.7981 67.2818C55.8011 67.2846 55.8034 67.2873 55.8064 67.29L69.6622 79.6127C70.8495 80.6684 71.4276 81.8379 71.2085 82.7412ZM71.0429 75.5691L58.4327 64.3543L54.4483 60.7266C53.8483 60.1799 52.9743 60.0574 52.2474 60.4182L45.8911 63.5699C44.1642 64.3127 42.4655 63.6059 41.8757 62.5154C41.0651 61.017 42.2792 58.9717 45.0444 57.1779L51.2329 53.1621C54.5884 50.9809 58.1083 50.8125 62.9233 51.3713L76.8657 69.2359C75.3944 71.8781 74.613 72.7168 71.0429 75.5691ZM95.1667 60.0768C95.1093 60.5203 94.8815 60.9141 94.5265 61.1848L84.0144 69.1885C83.6368 69.4773 83.2376 69.5379 82.9692 69.5379C82.4167 69.5377 81.9095 69.2945 81.579 68.8719L65.5331 48.3121C65.2581 47.9604 65.138 47.5232 65.195 47.0807C65.2522 46.6357 65.4808 46.2402 65.8388 45.9674L76.3384 37.9637C76.7192 37.6748 77.1204 37.6141 77.3901 37.6141C77.9433 37.6141 78.4491 37.8564 78.78 38.2813L94.8284 58.8377C95.1042 59.192 95.2245 59.6318 95.1667 60.0768Z" fill="#0C0B0B"/>
<path id="Vector_3" d="M38.4429 40.0123C41.5353 41.6809 45.0284 42.5629 48.5448 42.5629C60.2679 42.5629 69.8054 33.0146 69.8054 21.2785C69.8054 13.0875 65.0235 5.53398 57.6245 2.03535C54.7741 0.684766 51.7194 0 48.5448 0C36.8245 0 27.2896 9.54551 27.2896 21.2785C27.2896 29.1039 31.562 36.2816 38.4429 40.0123ZM48.5448 3.93906C51.1313 3.93906 53.6187 4.49629 55.9392 5.59551C61.9694 8.44687 65.8661 14.6029 65.8661 21.2785C65.8661 30.8428 58.0958 38.6238 48.545 38.6238C45.6794 38.6238 42.8331 37.9051 40.3171 36.5477C34.7112 33.508 31.2288 27.6572 31.2288 21.2785C31.2288 11.7176 38.9966 3.93906 48.5448 3.93906Z" fill="#0C0B0B"/>
<path id="Vector_4" d="M9.8649 50.3739C10.2276 50.6633 10.6614 50.804 11.0922 50.804C11.6708 50.804 12.244 50.5503 12.6329 50.0628L12.6551 50.0348C13.3337 49.1846 13.1944 47.9454 12.3442 47.2669C11.494 46.5887 10.2545 46.7274 9.57623 47.578L9.55396 47.6059C8.87545 48.4561 9.01471 49.6954 9.8649 50.3739Z" fill="#0C0B0B"/>
</g>
</g>
</g>
<defs>
<clipPath id="clip0_827_4677">
<rect width="100" height="100" fill="white"/>
</clipPath>
</defs>
</svg>
