<svg width="100" height="100" viewBox="0 0 100 100" fill="none" xmlns="http://www.w3.org/2000/svg">
<g id="001-file">
<g id="surface1">
<ellipse id="Ellipse 5" cx="67.3826" cy="70.8203" rx="26.0156" ry="26.0156" fill="#FDC040"/>
<path id="Vector" d="M72.6453 43.2892V24.3645C72.6453 23.8228 72.3951 23.3223 72.0411 22.9263L50.8237 0.64621C50.4278 0.229645 49.8647 0 49.3024 0H15.6629C9.45258 0 4.49194 5.06439 4.49194 11.2755V74.8856C4.49194 81.0966 9.45258 86.0779 15.6629 86.0779H42.2162C47.2387 94.4145 56.368 100 66.7676 100C82.5658 100 95.4671 87.1613 95.4671 71.3425C95.4885 57.5241 85.5672 45.9778 72.6453 43.2892ZM51.3868 7.31583L65.6217 22.3007H56.3886C53.6374 22.3007 51.3868 20.0294 51.3868 17.2783V7.31583ZM15.6629 81.9092C11.7658 81.9092 8.66064 78.7827 8.66064 74.8856V11.2755C8.66064 7.35703 11.7658 4.1687 15.6629 4.1687H47.2181V17.2783C47.2181 22.3427 51.3242 26.4694 56.3886 26.4694H68.4766V42.7467C67.8518 42.7261 67.3513 42.6636 66.8096 42.6636C59.5357 42.6636 52.8455 45.4567 47.8017 49.8337H21.3323C20.1856 49.8337 19.248 50.7713 19.248 51.9173C19.248 53.064 20.1856 54.0016 21.3323 54.0016H43.9252C42.4451 56.086 41.2153 58.1703 40.257 60.463H21.3323C20.1856 60.463 19.248 61.4006 19.248 62.5473C19.248 63.6932 20.1856 64.6317 21.3323 64.6317H38.902C38.3809 66.716 38.1101 69.0292 38.1101 71.3425C38.1101 75.0938 38.8395 78.804 40.1525 81.9305H15.6629V81.9092ZM66.789 95.8527C53.2834 95.8527 42.2994 84.8686 42.2994 71.3631C42.2994 57.8575 53.2621 46.8735 66.789 46.8735C80.3151 46.8735 91.2778 57.8575 91.2778 71.3631C91.2778 84.8686 80.2945 95.8527 66.789 95.8527Z" fill="#0C0B0B"/>
<path id="Vector_2" d="M21.3322 43.56H42.445C43.5917 43.56 44.5293 42.6216 44.5293 41.4756C44.5293 40.3289 43.5917 39.3913 42.445 39.3913H21.3322C20.1855 39.3913 19.2478 40.3289 19.2478 41.4756C19.2478 42.6216 20.1855 43.56 21.3322 43.56Z" fill="#0C0B0B"/>
<path id="Vector_3" d="M66.1007 58.5038C66.2677 58.545 66.4341 58.5663 66.6011 58.5663C66.8094 58.5663 66.9971 58.545 67.1848 58.4824C69.9359 58.712 72.0829 61.0047 72.0829 63.7978C72.0829 64.9437 73.0205 65.8814 74.1664 65.8814C75.3131 65.8814 76.2508 64.9437 76.2508 63.7978C76.2508 59.2125 72.9999 55.3772 68.6855 54.4808V53.1472C68.6855 52.0005 67.7471 51.0628 66.6011 51.0628C65.4544 51.0628 64.5168 52.0005 64.5168 53.1472V54.5647C60.3481 55.5649 57.2429 59.3376 57.2429 63.7978C57.2429 69.0499 61.5154 73.3017 66.7469 73.3017C69.6857 73.3017 72.0829 75.6981 72.0829 78.637C72.0829 81.5758 69.7063 83.9936 66.7469 83.9936C63.808 83.9936 61.4116 81.5964 61.4116 78.6576C61.4116 77.5116 60.4732 76.5732 59.3273 76.5732C58.1806 76.5732 57.2429 77.5116 57.2429 78.6576C57.2429 83.1391 60.3481 86.8904 64.5168 87.8907V90.0376C64.5168 91.1843 65.4544 92.1219 66.6011 92.1219C67.7471 92.1219 68.6855 91.1843 68.6855 90.0376V87.9532C72.9999 87.0568 76.2508 83.2222 76.2508 78.637C76.2508 73.3849 71.9783 69.133 66.7469 69.133C63.808 69.133 61.4116 66.7359 61.4116 63.7978C61.4116 61.0878 63.454 58.8166 66.1007 58.5038Z" fill="#0C0B0B"/>
</g>
</g>
</svg>
