<svg width="21" height="20" viewBox="0 0 21 20" fill="none" xmlns="http://www.w3.org/2000/svg">
<g id="akar-icons:youtube-fill" clip-path="url(#clip0_827_4548)" filter="url(#filter0_i_827_4548)">
<g id="Group">
<g id="Group_2">
<path id="Vector" d="M20.0281 5.37187C19.9159 4.97166 19.6974 4.60933 19.3957 4.32341C19.0855 4.02868 18.7054 3.81786 18.2911 3.71084C16.7407 3.30219 10.5292 3.30219 10.5292 3.30219C7.93971 3.27273 5.35084 3.40231 2.77722 3.6902C2.36294 3.80513 1.9835 4.02066 1.67262 4.31763C1.36716 4.61153 1.14591 4.97395 1.03034 5.37104C0.752694 6.86674 0.617797 8.38544 0.627463 9.90666C0.617556 11.4265 0.752122 12.9447 1.03034 14.4423C1.14344 14.8377 1.36386 15.1985 1.67014 15.4899C1.97643 15.7813 2.35783 15.9919 2.77722 16.1033C4.34826 16.5111 10.5292 16.5111 10.5292 16.5111C13.122 16.5406 15.7142 16.4111 18.2911 16.1231C18.7054 16.0161 19.0855 15.8053 19.3957 15.5106C19.7012 15.2191 19.9183 14.8567 20.0273 14.4621C20.3122 12.967 20.4507 11.4476 20.4409 9.92565C20.4623 8.39721 20.324 6.87072 20.0281 5.37104V5.37187ZM8.55448 12.7334V7.08077L13.7225 9.90749L8.55448 12.7334Z" fill="#0F0E0E"/>
</g>
</g>
</g>
<defs>
<filter id="filter0_i_827_4548" x="0.626953" y="0" width="19.8135" height="20.4669" filterUnits="userSpaceOnUse" color-interpolation-filters="sRGB">
<feFlood flood-opacity="0" result="BackgroundImageFix"/>
<feBlend mode="normal" in="SourceGraphic" in2="BackgroundImageFix" result="shape"/>
<feColorMatrix in="SourceAlpha" type="matrix" values="0 0 0 0 0 0 0 0 0 0 0 0 0 0 0 0 0 0 127 0" result="hardAlpha"/>
<feOffset dy="0.653399"/>
<feGaussianBlur stdDeviation="1.22512"/>
<feComposite in2="hardAlpha" operator="arithmetic" k2="-1" k3="1"/>
<feColorMatrix type="matrix" values="0 0 0 0 0 0 0 0 0 0 0 0 0 0 0 0 0 0 0.2 0"/>
<feBlend mode="normal" in2="shape" result="effect1_innerShadow_827_4548"/>
</filter>
<clipPath id="clip0_827_4548">
<rect width="19.8134" height="19.8134" fill="white" transform="translate(0.626953)"/>
</clipPath>
</defs>
</svg>
