<svg width="21" height="21" viewBox="0 0 21 21" fill="none" xmlns="http://www.w3.org/2000/svg">
<g id="fi-rs-flame 1" clip-path="url(#clip0_834_2681)">
<g id="01 align center">
<path id="Vector" d="M14.1631 3.58795C13.1631 2.74045 12.1331 1.86128 11.0906 0.822117L10.4964 0.232117L9.91309 0.82295C8.03642 2.70462 7.14975 5.59378 6.76475 7.32712C6.47006 6.87037 6.25139 6.36886 6.11725 5.84212L5.76475 4.48128L4.73975 5.44462C2.94392 7.13045 1.74642 8.80295 1.74642 11.4813C1.72965 13.4132 2.35885 15.2953 3.5341 16.8286C4.70934 18.362 6.36324 19.4587 8.23309 19.9446C8.79648 20.0816 9.37151 20.1653 9.95059 20.1946C10.1316 20.2175 10.3139 20.2295 10.4964 20.2304C10.5923 20.2304 10.6856 20.2221 10.7789 20.2163C13.049 20.148 15.2032 19.1977 16.7841 17.5671C18.3651 15.9366 19.2483 13.7541 19.2464 11.4829C19.2464 7.90462 16.8906 5.90462 14.1631 3.58795ZM10.6631 18.5496C10.5798 18.5496 10.4964 18.5579 10.4081 18.5571C9.65802 18.5342 8.94624 18.2206 8.42313 17.6825C7.90003 17.1445 7.60657 16.4242 7.60475 15.6738C7.60475 14.6171 8.17142 14.0904 9.45392 12.9988C9.77725 12.7238 10.1289 12.4246 10.4989 12.0821C10.8231 12.3763 11.1381 12.6429 11.4289 12.8904C12.7173 13.9838 13.3898 14.6046 13.3898 15.6713C13.3884 16.4084 13.1052 17.1171 12.5983 17.6522C12.0914 18.1873 11.399 18.5084 10.6631 18.5496ZM14.8464 17.0738L14.8298 17.0854C14.9793 16.6298 15.0558 16.1533 15.0564 15.6738C15.0564 13.7863 13.8181 12.7346 12.5081 11.6221C12.0439 11.2288 11.5648 10.8221 11.0864 10.3438L10.4964 9.75462L9.90725 10.3438C9.36725 10.8829 8.83892 11.3329 8.37309 11.7296C7.06642 12.8413 5.93725 13.8021 5.93725 15.6738C5.93903 16.1739 6.0235 16.6704 6.18725 17.1429C5.3198 16.4769 4.61806 15.6193 4.13683 14.6371C3.6556 13.655 3.4079 12.575 3.41309 11.4813C3.39938 10.019 3.96537 8.61072 4.98725 7.56462C5.16327 7.92172 5.37194 8.26178 5.61059 8.58045C5.78489 8.81565 6.0242 8.99471 6.29904 9.09555C6.57386 9.19639 6.8722 9.2146 7.15725 9.14795C7.44724 9.08339 7.7125 8.93667 7.92132 8.72535C8.13013 8.51402 8.27366 8.24702 8.33475 7.95628C8.68369 6.04099 9.43835 4.22251 10.5481 2.62295C11.4273 3.45628 12.2981 4.19378 13.0839 4.86128C15.6939 7.07795 17.5839 8.67962 17.5839 11.4863C17.586 12.5652 17.3401 13.6301 16.8653 14.5989C16.3905 15.5677 15.6995 16.4144 14.8456 17.0738H14.8464Z" fill="#0F0D0D"/>
</g>
</g>
<defs>
<clipPath id="clip0_834_2681">
<rect width="20" height="20" fill="white" transform="translate(0.496094 0.194641)"/>
</clipPath>
</defs>
</svg>
