<svg width="21" height="20" viewBox="0 0 21 20" fill="none" xmlns="http://www.w3.org/2000/svg">
<g id="akar-icons:instagram-fill" filter="url(#filter0_i_827_4552)">
<g id="Group">
<path id="Vector" fill-rule="evenodd" clip-rule="evenodd" d="M6.60213 0.88017C7.57051 0.83559 7.87927 0.825684 10.346 0.825684C12.8128 0.825684 13.1216 0.836416 14.0891 0.88017C15.0567 0.923925 15.7171 1.0783 16.295 1.30203C16.9002 1.53071 17.4492 1.88818 17.9032 2.35049C18.3655 2.80372 18.7222 3.35189 18.95 3.95785C19.1746 4.53575 19.3281 5.19619 19.3727 6.1621C19.4173 7.13213 19.4272 7.44089 19.4272 9.90683C19.4272 12.3736 19.4165 12.6824 19.3727 13.6507C19.3289 14.6166 19.1746 15.2771 18.95 15.855C18.7222 16.461 18.3649 17.0101 17.9032 17.464C17.4492 17.9263 16.9002 18.283 16.295 18.5108C15.7171 18.7354 15.0567 18.8889 14.0908 18.9335C13.1216 18.9781 12.8128 18.988 10.346 18.988C7.87927 18.988 7.57051 18.9773 6.60213 18.9335C5.63623 18.8897 4.97578 18.7354 4.39789 18.5108C3.79186 18.2829 3.24278 17.9257 2.78887 17.464C2.32688 17.0105 1.96935 16.4617 1.74124 15.8558C1.51751 15.2779 1.36396 14.6175 1.31938 13.6516C1.2748 12.6815 1.26489 12.3728 1.26489 9.90683C1.26489 7.44006 1.27562 7.1313 1.31938 6.16375C1.36313 5.19619 1.51751 4.53575 1.74124 3.95785C1.96969 3.35196 2.32749 2.80316 2.7897 2.34967C3.24297 1.88777 3.79149 1.53025 4.39706 1.30203C4.97495 1.0783 5.6354 0.924751 6.60131 0.88017H6.60213ZM14.0157 2.51478C13.058 2.47102 12.7707 2.46194 10.346 2.46194C7.92137 2.46194 7.63408 2.47102 6.67643 2.51478C5.79061 2.55523 5.31013 2.703 4.98981 2.82766C4.5663 2.99278 4.26332 3.18843 3.94548 3.50627C3.64419 3.79939 3.41232 4.15622 3.26687 4.55061C3.14221 4.87092 2.99444 5.3514 2.95399 6.23722C2.91023 7.19487 2.90115 7.48217 2.90115 9.90683C2.90115 12.3315 2.91023 12.6188 2.95399 13.5764C2.99444 14.4623 3.14221 14.9427 3.26687 15.2631C3.41217 15.6569 3.64415 16.0143 3.94548 16.3074C4.23856 16.6087 4.59602 16.8407 4.98981 16.986C5.31013 17.1107 5.79061 17.2584 6.67643 17.2989C7.63408 17.3426 7.92055 17.3517 10.346 17.3517C12.7715 17.3517 13.058 17.3426 14.0157 17.2989C14.9015 17.2584 15.382 17.1107 15.7023 16.986C16.1258 16.8209 16.4288 16.6252 16.7466 16.3074C17.0479 16.0143 17.2799 15.6569 17.4252 15.2631C17.5499 14.9427 17.6976 14.4623 17.7381 13.5764C17.7819 12.6188 17.7909 12.3315 17.7909 9.90683C17.7909 7.48217 17.7819 7.19487 17.7381 6.23722C17.6976 5.3514 17.5499 4.87092 17.4252 4.55061C17.2601 4.12709 17.0644 3.82411 16.7466 3.50627C16.4535 3.205 16.0966 2.97314 15.7023 2.82766C15.382 2.703 14.9015 2.55523 14.0157 2.51478ZM9.18613 12.7063C9.83391 12.976 10.5552 13.0124 11.2269 12.8093C11.8985 12.6062 12.4788 12.1762 12.8686 11.5928C13.2585 11.0094 13.4337 10.3088 13.3643 9.61054C13.295 8.91231 12.9854 8.25982 12.4884 7.76451C12.1715 7.44789 11.7885 7.20545 11.3667 7.05465C10.9449 6.90385 10.495 6.84843 10.0492 6.8924C9.6035 6.93637 9.17305 7.07861 8.78888 7.30891C8.4047 7.5392 8.07637 7.85181 7.82751 8.22422C7.57865 8.59664 7.41546 9.0196 7.34969 9.46265C7.28391 9.9057 7.31719 10.3578 7.44712 10.7865C7.57706 11.2151 7.80042 11.6096 8.10112 11.9416C8.40182 12.2736 8.77238 12.5347 9.18613 12.7063ZM7.04546 6.60625C7.4789 6.17281 7.99346 5.82899 8.55978 5.59441C9.12609 5.35984 9.73307 5.2391 10.346 5.2391C10.959 5.2391 11.566 5.35984 12.1323 5.59441C12.6986 5.82899 13.2132 6.17281 13.6466 6.60625C14.0801 7.03969 14.4239 7.55425 14.6585 8.12057C14.893 8.68688 15.0138 9.29386 15.0138 9.90683C15.0138 10.5198 14.893 11.1268 14.6585 11.6931C14.4239 12.2594 14.0801 12.774 13.6466 13.2074C12.7713 14.0828 11.584 14.5746 10.346 14.5746C9.10808 14.5746 7.92083 14.0828 7.04546 13.2074C6.17009 12.332 5.67831 11.1448 5.67831 9.90683C5.67831 8.66887 6.17009 7.48162 7.04546 6.60625ZM16.049 5.93424C16.1564 5.83292 16.2424 5.71108 16.3019 5.57593C16.3614 5.44078 16.3931 5.29507 16.3953 5.14743C16.3974 4.99979 16.3699 4.85321 16.3144 4.71639C16.2589 4.57956 16.1765 4.45526 16.0721 4.35085C15.9677 4.24644 15.8434 4.16404 15.7066 4.10853C15.5697 4.05302 15.4232 4.02553 15.2755 4.02768C15.1279 4.02984 14.9822 4.06159 14.847 4.12106C14.7119 4.18054 14.59 4.26653 14.4887 4.37394C14.2916 4.58283 14.1838 4.86029 14.1879 5.14743C14.1921 5.43456 14.3081 5.70877 14.5111 5.91182C14.7142 6.11488 14.9884 6.23081 15.2755 6.23499C15.5626 6.23918 15.8401 6.1313 16.049 5.93424Z" fill="#0F0E0E"/>
</g>
</g>
<defs>
<filter id="filter0_i_827_4552" x="0.440186" y="0" width="19.8135" height="20.4669" filterUnits="userSpaceOnUse" color-interpolation-filters="sRGB">
<feFlood flood-opacity="0" result="BackgroundImageFix"/>
<feBlend mode="normal" in="SourceGraphic" in2="BackgroundImageFix" result="shape"/>
<feColorMatrix in="SourceAlpha" type="matrix" values="0 0 0 0 0 0 0 0 0 0 0 0 0 0 0 0 0 0 127 0" result="hardAlpha"/>
<feOffset dy="0.653399"/>
<feGaussianBlur stdDeviation="1.22512"/>
<feComposite in2="hardAlpha" operator="arithmetic" k2="-1" k3="1"/>
<feColorMatrix type="matrix" values="0 0 0 0 0 0 0 0 0 0 0 0 0 0 0 0 0 0 0.2 0"/>
<feBlend mode="normal" in2="shape" result="effect1_innerShadow_827_4552"/>
</filter>
</defs>
</svg>
